<svg width="16" height="16" viewBox="0 0 16 16" fill="none" xmlns="http://www.w3.org/2000/svg">
<rect width="16" height="16" fill="white" fill-opacity="0.01" style="mix-blend-mode:multiply"/>
<path d="M8 10H5V11H8V10Z" fill="#DA1E28"/>
<path d="M9 8H5V9H9V8Z" fill="#DA1E28"/>
<path d="M4 2H8V5C8 5.55005 8.44995 6 9 6H12V9H13V5C13 4.8501 12.95 4.75 12.85 4.6499L9.35 1.1499C9.25 1.05005 9.15005 1 9 1H4C3.44995 1 3 1.44995 3 2V14C3 14.55 3.44995 15 4 15H7.5V14H4V2ZM9 2.19995L11.8 5H9V2.19995Z" fill="#DA1E28"/>
<path d="M13.624 10.9189L14.0811 11.376L14.1631 11.457L14.0811 11.5381L12.6191 13L14.0811 14.4619L14.1631 14.543L14.0811 14.624L13.624 15.0811L13.543 15.1631L13.4619 15.0811L12 13.6191L10.5381 15.0811L10.457 15.1631L10.376 15.0811L9.91895 14.624L9.83691 14.543L9.91895 14.4619L11.3809 13L9.91895 11.5381L9.83691 11.457L9.91895 11.376L10.376 10.9189L10.457 10.8369L10.5381 10.9189L12 12.3809L13.4619 10.9189L13.543 10.8369L13.624 10.9189Z" fill="#DA1E28" stroke="#DA1E28" stroke-width="0.23"/>
</svg>
