<svg width="16" height="16" viewBox="0 0 16 16" fill="none" xmlns="http://www.w3.org/2000/svg">
<g clip-path="url(#clip0_12103_1067)">
<rect width="16" height="16" fill="white" fill-opacity="0.01" style="mix-blend-mode:multiply"/>
<path d="M8 10H5V11H8V10Z" fill="#DA1E28"/>
<path d="M9 8H5V9H9V8Z" fill="#DA1E28"/>
<path d="M4 2H8V5C8 5.55005 8.44995 6 9 6H12V9H13V5C13 4.8501 12.95 4.75 12.85 4.6499L9.35 1.1499C9.25 1.05005 9.15005 1 9 1H4C3.44995 1 3 1.44995 3 2V14C3 14.55 3.44995 15 4 15H7.5V14H4V2ZM9 2.19995L11.8 5H9V2.19995Z" fill="#DA1E28"/>
<path d="M11.4658 10.3125C11.9972 10.2069 12.5483 10.2614 13.0488 10.4688C13.5493 10.6761 13.9773 11.0271 14.2783 11.4775C14.5794 11.9281 14.7402 12.4581 14.7402 13C14.7402 13.7267 14.4513 14.4237 13.9375 14.9375C13.4237 15.4513 12.7267 15.7402 12 15.7402C11.4581 15.7402 10.9281 15.5794 10.4775 15.2783C10.0271 14.9773 9.67614 14.5493 9.46875 14.0488C9.26142 13.5483 9.20688 12.9972 9.3125 12.4658C9.41822 11.9343 9.6793 11.4457 10.0625 11.0625C10.4457 10.6793 10.9343 10.4182 11.4658 10.3125ZM12 10.8652C11.5777 10.8652 11.1646 10.99 10.8135 11.2246C10.4625 11.4592 10.1889 11.7927 10.0273 12.1826C9.86575 12.5727 9.82387 13.0028 9.90625 13.417C9.98869 13.8309 10.1918 14.2113 10.4902 14.5098C10.7887 14.8082 11.1691 15.0113 11.583 15.0938C11.9972 15.1761 12.4273 15.1342 12.8174 14.9727C13.2073 14.8111 13.5408 14.5375 13.7754 14.1865C14.01 13.8354 14.1348 13.4223 14.1348 13C14.1348 12.4338 13.9102 11.8906 13.5098 11.4902C13.1094 11.0898 12.5662 10.8652 12 10.8652ZM12.3027 11.1973V12.874L13.2061 13.7793L13.2871 13.8604L13.2061 13.9424L12.8604 14.2881L12.7793 14.2061L11.6973 13.124V11.1973H12.3027Z" fill="#DA1E28" stroke="#DA1E28" stroke-width="0.23"/>
</g>
<defs>
<clipPath id="clip0_12103_1067">
<rect width="16" height="16" fill="white"/>
</clipPath>
</defs>
</svg>
